<svg version="1.1" id="Layer_1" xmlns="http://www.w3.org/2000/svg" xmlns:xlink="http://www.w3.org/1999/xlink" x="0px" y="0px"
	 width="100%" viewBox="0 0 309 226" enable-background="new 0 0 309 226" xml:space="preserve">
<path fill="#050505" opacity="1.000000" stroke="none" 
	d="
M170.000000,227.000000 
	C113.333344,227.000000 57.166679,227.000000 1.000015,227.000000 
	C1.000010,151.666687 1.000010,76.333366 1.000005,1.000035 
	C103.999969,1.000024 206.999939,1.000024 309.999939,1.000012 
	C309.999939,76.333298 309.999939,151.666595 309.999969,226.999939 
	C263.500000,227.000000 217.000000,227.000000 170.000000,227.000000 
M220.578369,183.418976 
	C219.692963,185.615387 218.807556,187.811783 217.405930,190.465897 
	C215.866425,193.238281 214.326920,196.010681 212.824097,198.717010 
	C215.626862,198.717010 218.851532,198.717010 222.076202,198.717010 
	C216.471878,196.791687 219.460785,193.095215 220.619095,189.440781 
	C222.922668,189.302307 225.242035,189.288452 227.526398,188.998566 
	C231.844437,188.450592 231.670807,192.200134 232.492340,194.519394 
	C232.883026,195.622284 231.454376,197.369614 230.853912,198.815323 
	C234.835663,198.815323 239.510620,198.815323 243.341949,198.815323 
	C238.651550,188.226547 233.897873,177.494934 229.144196,166.763306 
	C228.682816,166.739075 228.221420,166.714859 227.760040,166.690643 
	C225.827133,171.464798 223.894226,176.238953 221.454346,181.264725 
	C221.297943,181.792160 221.141541,182.319580 220.578369,183.418976 
M115.537872,191.003754 
	C113.648056,194.321243 111.758240,197.638748 109.868416,200.956253 
	C109.042625,200.233383 108.216835,199.510498 107.391045,198.787628 
	C111.109474,198.787628 114.827904,198.787628 118.658165,198.787628 
	C117.460739,197.850159 116.282417,196.927658 115.016876,195.936859 
	C116.178040,194.094986 117.140106,192.568909 118.710785,190.702896 
	C119.634644,189.662689 120.558502,188.622482 122.177483,186.799591 
	C122.655151,191.676331 129.549622,193.490128 125.539795,198.758148 
	C130.138474,198.758148 134.859436,198.758148 139.021454,198.758148 
	C134.912888,192.808945 130.755417,186.788925 126.473495,180.588699 
	C130.556061,176.151855 134.281509,172.103119 137.849869,168.225113 
	C134.968384,168.225113 131.454300,168.225113 127.874420,168.225113 
	C131.534378,171.524216 131.332764,172.342987 125.263100,178.453171 
	C123.523239,175.799179 121.819618,173.200470 120.041039,170.487427 
	C121.078217,169.641754 121.877800,168.989807 122.710838,168.310577 
	C117.680328,168.310577 112.830116,168.310577 108.746803,168.310577 
	C112.531830,173.866028 116.396912,179.538986 120.117676,185.000122 
	C118.557297,187.204285 117.314842,188.959366 115.537872,191.003754 
M191.051788,168.000214 
	C186.078323,168.000214 181.104858,168.000214 177.259735,168.000214 
	C182.468262,175.293793 178.956558,183.971481 179.705200,191.940384 
	C179.918045,194.205933 178.270935,196.646225 177.480759,198.994537 
	C181.423462,198.994537 186.704025,198.994537 192.630341,199.042679 
	C193.061737,199.036758 193.493134,199.030838 194.867767,199.008636 
	C199.737137,199.008636 204.606506,199.008636 208.482910,199.008636 
	C207.602127,196.850235 206.152115,194.821869 206.034882,192.719208 
	C205.703583,186.777634 205.684662,180.791809 206.033737,174.852295 
	C206.173615,172.472321 207.597092,170.167786 208.383850,167.975128 
	C204.186401,167.975128 199.055969,167.975128 193.278229,167.942261 
	C192.846817,167.963379 192.415405,167.984482 191.051788,168.000214 
M209.201035,112.608940 
	C210.792145,108.275299 213.602280,103.983971 213.754395,99.600388 
	C214.291306,84.128494 214.613113,68.583832 213.699402,53.144707 
	C212.725784,36.693523 201.616135,27.251200 185.252441,27.230534 
	C166.588303,27.206961 147.924133,27.214893 129.259979,27.226797 
	C110.243179,27.238926 99.689575,37.040035 99.000076,56.091579 
	C98.524315,69.237343 98.575226,82.419434 98.900764,95.572670 
	C99.333427,113.054443 109.443237,124.338760 126.711189,124.391037 
	C138.198227,124.425812 145.511414,127.828285 150.211151,138.410690 
	C152.751511,144.130829 159.526382,143.679901 163.034698,138.256073 
	C164.662064,135.740204 166.194824,133.158539 167.669754,130.549774 
	C169.848907,126.695381 173.062286,124.856071 177.512253,124.964645 
	C180.340271,125.033638 183.175537,124.849976 186.006424,124.747757 
	C195.374756,124.409485 203.111847,120.838432 209.201035,112.608940 
M77.008347,169.082458 
	C77.897797,170.615646 79.478218,172.115234 79.554657,173.687943 
	C79.853401,179.835007 79.908813,186.018433 79.559158,192.160110 
	C79.424271,194.529404 77.967903,196.823486 77.252144,198.774261 
	C84.913872,198.774261 93.691795,198.774261 102.624847,198.774261 
	C103.055046,195.546280 103.453621,192.555573 103.852196,189.564865 
	C102.175957,190.618942 101.684448,192.642105 100.522156,193.160065 
	C97.049538,194.707611 93.314125,195.665436 89.681328,196.853546 
	C89.074631,194.464752 88.307144,192.101959 87.915512,189.678406 
	C87.635971,187.948517 87.861229,186.137070 87.861229,184.362015 
	C88.350021,184.096771 88.838806,183.831512 89.327599,183.566269 
	C91.133430,185.948608 92.939270,188.330948 94.874680,190.884232 
	C94.874680,185.592377 94.874680,180.400269 94.874680,174.187363 
	C92.648666,177.536591 92.852966,182.125076 88.160980,181.660904 
	C88.160980,177.667206 88.160980,173.904953 88.160980,170.182053 
	C94.131401,169.551865 98.980171,170.538055 101.498856,176.735840 
	C101.498856,173.945496 101.498856,171.155136 101.498856,168.016586 
	C93.067024,168.016586 84.774689,168.013870 76.482574,168.054184 
	C76.397408,168.054581 76.315002,168.621887 77.008347,169.082458 
M66.091156,197.565063 
	C67.013527,198.410629 67.935898,199.256195 69.610168,200.791031 
	C69.610168,191.301559 69.442421,183.155991 69.715767,175.025269 
	C69.794403,172.686111 71.144852,170.389709 71.876358,168.181870 
	C69.832329,168.181870 66.670067,168.181870 63.133659,168.181870 
	C67.503235,170.803253 68.591545,177.310242 66.276825,184.967621 
	C66.031425,184.763535 65.739883,184.595566 65.547562,184.349930 
	C62.883705,180.947327 60.234867,177.532974 57.579594,174.123657 
	C52.154995,167.158554 51.021870,166.757263 43.340328,168.307938 
	C44.152405,170.940491 45.531464,173.589737 45.694248,176.311722 
	C46.051193,182.280365 45.750717,188.286362 45.826637,194.275757 
	C45.838745,195.231094 46.410900,196.179321 46.724140,197.130844 
	C47.209564,197.030518 47.694988,196.930206 48.180412,196.829895 
	C48.180412,189.890289 48.180412,182.950699 48.180412,175.079102 
	C54.476997,182.961700 60.071251,189.965073 66.091156,197.565063 
M165.048981,170.166626 
	C167.218201,172.637039 169.387421,175.107468 171.749619,177.797668 
	C171.749619,174.176758 171.749619,170.777359 171.749619,168.220413 
	C169.210831,168.000671 166.985443,168.066086 164.888168,167.579391 
	C157.858002,165.948090 151.564270,166.998795 146.766922,172.694016 
	C142.069427,178.270676 141.016510,184.663666 144.171188,191.354248 
	C146.909576,197.161896 151.747971,199.783600 158.159454,200.088379 
	C163.822250,200.357529 168.259781,198.771729 170.934723,193.543045 
	C169.325256,194.119553 167.856033,194.962463 166.478546,195.935257 
	C160.972794,199.823395 154.065765,197.972519 152.621078,191.431931 
	C151.546890,186.568710 151.516861,181.156357 152.436447,176.253937 
	C153.523941,170.456421 158.598495,168.279205 165.048981,170.166626 
M253.343597,170.318909 
	C254.555237,170.318909 255.766876,170.318909 257.141907,170.318909 
	C257.141907,177.877243 257.341858,185.032928 257.029114,192.166122 
	C256.925323,194.533371 255.503876,196.842850 254.787872,198.884888 
	C258.863647,198.884888 263.993896,198.884888 268.381836,198.884888 
	C267.449158,197.498428 265.537506,195.956512 265.472870,194.340668 
	C265.155334,186.407333 265.328766,178.454361 265.328766,170.396774 
	C270.634369,169.039322 272.612549,172.602875 275.187256,177.287888 
	C275.187256,173.336914 275.187256,170.853210 275.187256,168.267776 
	C265.834473,168.267776 256.604919,168.267776 247.429260,168.267776 
	C247.429260,170.929993 247.429260,173.287231 247.429260,175.644470 
	C247.189499,175.299896 246.949722,174.955338 246.709961,174.610779 
	C248.669754,173.292480 250.629562,171.974182 253.343597,170.318909 
z"/>
<path fill="#926EFE" opacity="1.000000" stroke="none" 
	d="
M208.995087,112.908127 
	C203.111847,120.838432 195.374756,124.409485 186.006424,124.747757 
	C183.175537,124.849976 180.340271,125.033638 177.512253,124.964645 
	C173.062286,124.856071 169.848907,126.695381 167.669754,130.549774 
	C166.194824,133.158539 164.662064,135.740204 163.034698,138.256073 
	C159.526382,143.679901 152.751511,144.130829 150.211151,138.410690 
	C145.511414,127.828285 138.198227,124.425812 126.711189,124.391037 
	C109.443237,124.338760 99.333427,113.054443 98.900764,95.572670 
	C98.575226,82.419434 98.524315,69.237343 99.000076,56.091579 
	C99.689575,37.040035 110.243179,27.238926 129.259979,27.226797 
	C147.924133,27.214893 166.588303,27.206961 185.252441,27.230534 
	C201.616135,27.251200 212.725784,36.693523 213.699402,53.144707 
	C214.613113,68.583832 214.291306,84.128494 213.754395,99.600388 
	C213.602280,103.983971 210.792145,108.275299 208.995087,112.908127 
M185.579880,77.764549 
	C184.523941,74.217987 182.064423,72.073051 178.550140,73.286217 
	C176.674759,73.933617 174.121674,76.739815 174.311539,78.269066 
	C174.587326,80.490173 176.719391,83.699799 178.677826,84.237663 
	C182.678452,85.336433 185.044525,82.530449 185.579880,77.764549 
M135.774429,73.473801 
	C129.798355,72.599266 125.772636,75.892891 127.866066,80.251808 
	C128.774384,82.143089 131.279831,83.997772 133.330002,84.366333 
	C134.821976,84.634552 138.039459,82.610313 138.214279,81.303917 
	C138.530350,78.942039 137.147537,76.352821 135.774429,73.473801 
M162.123306,79.276039 
	C161.270523,77.459427 160.892776,74.955452 159.465988,73.969421 
	C156.504028,71.922447 153.164124,72.639198 151.478378,75.915825 
	C149.898499,78.986687 150.519669,82.238640 153.992050,83.868942 
	C157.963760,85.733704 160.591568,83.969635 162.123306,79.276039 
z"/>
<path fill="#F8F8F8" opacity="1.000000" stroke="none" 
	d="
M191.984589,198.994537 
	C186.704025,198.994537 181.423462,198.994537 177.480759,198.994537 
	C178.270935,196.646225 179.918045,194.205933 179.705200,191.940384 
	C178.956558,183.971481 182.468262,175.293793 177.259735,168.000214 
	C181.104858,168.000214 186.078323,168.000214 191.423615,168.381073 
	C183.888474,171.252686 189.888672,177.459030 187.512009,181.725082 
	C191.419586,181.725082 194.480576,181.725082 197.908249,181.725082 
	C197.073715,176.756638 200.453506,171.039322 193.925537,167.975128 
	C199.055969,167.975128 204.186401,167.975128 208.383850,167.975128 
	C207.597092,170.167786 206.173615,172.472321 206.033737,174.852295 
	C205.684662,180.791809 205.703583,186.777634 206.034882,192.719208 
	C206.152115,194.821869 207.602127,196.850235 208.482910,199.008636 
	C204.606506,199.008636 199.737137,199.008636 194.460358,198.629028 
	C198.407578,196.601669 199.048859,193.870590 197.310074,184.275970 
	C194.251892,184.275970 191.187897,184.275970 187.617355,184.275970 
	C189.134766,189.443939 184.835022,195.746262 191.984589,198.994537 
z"/>
<path fill="#F0F0F0" opacity="1.000000" stroke="none" 
	d="
M76.619827,169.003494 
	C76.315002,168.621887 76.397408,168.054581 76.482574,168.054184 
	C84.774689,168.013870 93.067024,168.016586 101.498856,168.016586 
	C101.498856,171.155136 101.498856,173.945496 101.498856,176.735840 
	C98.980171,170.538055 94.131401,169.551865 88.160980,170.182053 
	C88.160980,173.904953 88.160980,177.667206 88.160980,181.660904 
	C92.852966,182.125076 92.648666,177.536591 94.874680,174.187363 
	C94.874680,180.400269 94.874680,185.592377 94.874680,190.884232 
	C92.939270,188.330948 91.133430,185.948608 89.327599,183.566269 
	C88.838806,183.831512 88.350021,184.096771 87.861229,184.362015 
	C87.861229,186.137070 87.635971,187.948517 87.915512,189.678406 
	C88.307144,192.101959 89.074631,194.464752 89.681328,196.853546 
	C93.314125,195.665436 97.049538,194.707611 100.522156,193.160065 
	C101.684448,192.642105 102.175957,190.618942 103.852196,189.564865 
	C103.453621,192.555573 103.055046,195.546280 102.624847,198.774261 
	C93.691795,198.774261 84.913872,198.774261 77.252144,198.774261 
	C77.967903,196.823486 79.424271,194.529404 79.559158,192.160110 
	C79.908813,186.018433 79.853401,179.835007 79.554657,173.687943 
	C79.478218,172.115234 77.897797,170.615646 76.619827,169.003494 
z"/>
<path fill="#E8E8E8" opacity="1.000000" stroke="none" 
	d="
M65.878326,197.266754 
	C60.071251,189.965073 54.476997,182.961700 48.180412,175.079102 
	C48.180412,182.950699 48.180412,189.890289 48.180412,196.829895 
	C47.694988,196.930206 47.209564,197.030518 46.724140,197.130844 
	C46.410900,196.179321 45.838745,195.231094 45.826637,194.275757 
	C45.750717,188.286362 46.051193,182.280365 45.694248,176.311722 
	C45.531464,173.589737 44.152405,170.940491 43.340328,168.307938 
	C51.021870,166.757263 52.154995,167.158554 57.579594,174.123657 
	C60.234867,177.532974 62.883705,180.947327 65.547562,184.349930 
	C65.739883,184.595566 66.031425,184.763535 66.278625,184.965454 
	C68.591545,177.310242 67.503235,170.803253 63.133659,168.181870 
	C66.670067,168.181870 69.832329,168.181870 71.876358,168.181870 
	C71.144852,170.389709 69.794403,172.686111 69.715767,175.025269 
	C69.442421,183.155991 69.610168,191.301559 69.610168,200.791031 
	C67.935898,199.256195 67.013527,198.410629 65.878326,197.266754 
z"/>
<path fill="#F0F0F0" opacity="1.000000" stroke="none" 
	d="
M116.072388,190.714447 
	C117.314842,188.959366 118.557297,187.204285 120.117676,185.000122 
	C116.396912,179.538986 112.531830,173.866028 108.746803,168.310577 
	C112.830116,168.310577 117.680328,168.310577 122.710838,168.310577 
	C121.877800,168.989807 121.078217,169.641754 120.041039,170.487427 
	C121.819618,173.200470 123.523239,175.799179 125.263100,178.453171 
	C131.332764,172.342987 131.534378,171.524216 127.874420,168.225113 
	C131.454300,168.225113 134.968384,168.225113 137.849869,168.225113 
	C134.281509,172.103119 130.556061,176.151855 126.473495,180.588699 
	C130.755417,186.788925 134.912888,192.808945 139.021454,198.758148 
	C134.859436,198.758148 130.138474,198.758148 125.539795,198.758148 
	C129.549622,193.490128 122.655151,191.676331 122.177483,186.799591 
	C120.558502,188.622482 119.634644,189.662689 117.898468,190.794250 
	C116.748238,190.828537 116.410309,190.771500 116.072388,190.714447 
z"/>
<path fill="#EEEEEE" opacity="1.000000" stroke="none" 
	d="
M164.684265,170.042206 
	C158.598495,168.279205 153.523941,170.456421 152.436447,176.253937 
	C151.516861,181.156357 151.546890,186.568710 152.621078,191.431931 
	C154.065765,197.972519 160.972794,199.823395 166.478546,195.935257 
	C167.856033,194.962463 169.325256,194.119553 170.934723,193.543045 
	C168.259781,198.771729 163.822250,200.357529 158.159454,200.088379 
	C151.747971,199.783600 146.909576,197.161896 144.171188,191.354248 
	C141.016510,184.663666 142.069427,178.270676 146.766922,172.694016 
	C151.564270,166.998795 157.858002,165.948090 164.888168,167.579391 
	C166.985443,168.066086 169.210831,168.000671 171.749619,168.220413 
	C171.749619,170.777359 171.749619,174.176758 171.749619,177.797668 
	C169.387421,175.107468 167.218201,172.637039 164.684265,170.042206 
z"/>
<path fill="#F1F1F1" opacity="1.000000" stroke="none" 
	d="
M252.966476,170.487396 
	C250.629562,171.974182 248.669754,173.292480 246.709961,174.610779 
	C246.949722,174.955338 247.189499,175.299896 247.429260,175.644470 
	C247.429260,173.287231 247.429260,170.929993 247.429260,168.267776 
	C256.604919,168.267776 265.834473,168.267776 275.187256,168.267776 
	C275.187256,170.853210 275.187256,173.336914 275.187256,177.287888 
	C272.612549,172.602875 270.634369,169.039322 265.328766,170.396774 
	C265.328766,178.454361 265.155334,186.407333 265.472870,194.340668 
	C265.537506,195.956512 267.449158,197.498428 268.381836,198.884888 
	C263.993896,198.884888 258.863647,198.884888 254.787872,198.884888 
	C255.503876,196.842850 256.925323,194.533371 257.029114,192.166122 
	C257.341858,185.032928 257.141907,177.877243 257.141907,170.318909 
	C255.766876,170.318909 254.555237,170.318909 252.966476,170.487396 
z"/>
<path fill="#F2F2F2" opacity="1.000000" stroke="none" 
	d="
M217.922134,190.008209 
	C218.807556,187.811783 219.692963,185.615387 221.174469,183.319458 
	C221.933014,184.437805 222.095459,185.655670 222.229889,186.663574 
	C224.664856,186.663574 226.852448,186.663574 229.513428,186.663574 
	C228.139954,183.512848 226.976807,180.844620 225.955688,178.502182 
	C224.462982,179.440521 223.212143,180.226807 221.961304,181.013092 
	C223.894226,176.238953 225.827133,171.464798 227.760040,166.690643 
	C228.221420,166.714859 228.682816,166.739075 229.144196,166.763306 
	C233.897873,177.494934 238.651550,188.226547 243.341949,198.815323 
	C239.510620,198.815323 234.835663,198.815323 230.853912,198.815323 
	C231.454376,197.369614 232.883026,195.622284 232.492340,194.519394 
	C231.670807,192.200134 231.844437,188.450592 227.526398,188.998566 
	C225.242035,189.288452 222.922668,189.302307 219.963959,189.722015 
	C218.846603,190.004898 218.384369,190.006546 217.922134,190.008209 
z"/>
<path fill="#0D0D0D" opacity="1.000000" stroke="none" 
	d="
M192.307465,199.018616 
	C184.835022,195.746262 189.134766,189.443939 187.617355,184.275970 
	C191.187897,184.275970 194.251892,184.275970 197.310074,184.275970 
	C199.048859,193.870590 198.407578,196.601669 193.988739,198.637161 
	C193.493134,199.030838 193.061737,199.036758 192.307465,199.018616 
z"/>
<path fill="#0E0E0E" opacity="1.000000" stroke="none" 
	d="
M193.601883,167.958694 
	C200.453506,171.039322 197.073715,176.756638 197.908249,181.725082 
	C194.480576,181.725082 191.419586,181.725082 187.512009,181.725082 
	C189.888672,177.459030 183.888474,171.252686 191.889725,168.383759 
	C192.415405,167.984482 192.846817,167.963379 193.601883,167.958694 
z"/>
<path fill="#191919" opacity="1.000000" stroke="none" 
	d="
M221.707825,181.138916 
	C223.212143,180.226807 224.462982,179.440521 225.955688,178.502182 
	C226.976807,180.844620 228.139954,183.512848 229.513428,186.663574 
	C226.852448,186.663574 224.664856,186.663574 222.229889,186.663574 
	C222.095459,185.655670 221.933014,184.437805 221.377869,183.033478 
	C221.141541,182.319580 221.297943,181.792160 221.707825,181.138916 
z"/>
<path fill="#E5E5E5" opacity="1.000000" stroke="none" 
	d="
M115.805130,190.859100 
	C116.410309,190.771500 116.748238,190.828537 117.594162,190.964218 
	C117.140106,192.568909 116.178040,194.094986 115.016876,195.936859 
	C116.282417,196.927658 117.460739,197.850159 118.658165,198.787628 
	C114.827904,198.787628 111.109474,198.787628 107.391045,198.787628 
	C108.216835,199.510498 109.042625,200.233383 109.868416,200.956253 
	C111.758240,197.638748 113.648056,194.321243 115.805130,190.859100 
z"/>
<path fill="#E2E2E2" opacity="1.000000" stroke="none" 
	d="
M217.664032,190.237061 
	C218.384369,190.006546 218.846603,190.004898 219.655502,190.002045 
	C219.460785,193.095215 216.471878,196.791687 222.076202,198.717010 
	C218.851532,198.717010 215.626862,198.717010 212.824097,198.717010 
	C214.326920,196.010681 215.866425,193.238281 217.664032,190.237061 
z"/>
<path fill="#F7F5FF" opacity="1.000000" stroke="none" 
	d="
M185.623337,78.128555 
	C185.044525,82.530449 182.678452,85.336433 178.677826,84.237663 
	C176.719391,83.699799 174.587326,80.490173 174.311539,78.269066 
	C174.121674,76.739815 176.674759,73.933617 178.550140,73.286217 
	C182.064423,72.073051 184.523941,74.217987 185.623337,78.128555 
z"/>
<path fill="#F8F5FF" opacity="1.000000" stroke="none" 
	d="
M136.124268,73.666168 
	C137.147537,76.352821 138.530350,78.942039 138.214279,81.303917 
	C138.039459,82.610313 134.821976,84.634552 133.330002,84.366333 
	C131.279831,83.997772 128.774384,82.143089 127.866066,80.251808 
	C125.772636,75.892891 129.798355,72.599266 136.124268,73.666168 
z"/>
<path fill="#F8F6FF" opacity="1.000000" stroke="none" 
	d="
M162.079926,79.675949 
	C160.591568,83.969635 157.963760,85.733704 153.992050,83.868942 
	C150.519669,82.238640 149.898499,78.986687 151.478378,75.915825 
	C153.164124,72.639198 156.504028,71.922447 159.465988,73.969421 
	C160.892776,74.955452 161.270523,77.459427 162.079926,79.675949 
z"/>
</svg>